ffmpeg started on 2025-06-06 at 17:44:41
Report written to "D:\Convert\FFMetrics\reports\psnr_report-6.txt"
Log level: 32
Command line:
ffmpeg -hide_banner -nostdin -i "G:\\\xc0\xed\xe8\xec\xe5\\\xce\xed\xe3\xee\xe8\xed\xe3\xe8\\!_36_\xce\xf1\xe5\xed\xfc_2024\\DreamCast\\\xcf\xee\xe2\xe5\xeb\xe8\xf2\xe5\xeb\xfc \xe4\xe5\xec\xee\xed\xee\xe2 2099\\[DC] Maou 2099 - 04_Telegram_HEVC.mkv" -i "G:\\\xc0\xed\xe8\xec\xe5\\\xce\xed\xe3\xee\xe8\xed\xe3\xe8\\!_36_\xce\xf1\xe5\xed\xfc_2024\\DreamCast\\\xcf\xee\xe2\xe5\xeb\xe8\xf2\xe5\xeb\xfc \xe4\xe5\xec\xee\xed\xee\xe2 2099\\[DC] Maou 2099 - 04_Telegram.mp4" -lavfi "[0:v]settb=AVTB,setpts=PTS-STARTPTS,format=pix_fmts=yuv420p10,fps=24000/1001,scale=1920:1080:flags=bicubic[main];[1:v]settb=AVTB,setpts=PTS-STARTPTS,format=pix_fmts=yuv420p,fps=24000/1001,scale=1920:1080:flags=bicubic[ref];[main][ref]psnr=eof_action=endall:stats_file='D\\:/Convert/FFMetrics/logs/psnr_logfile-6.txt'" -f null -
Input #0, matroska,webm, from 'G:\Аниме\Онгоинги\!_36_Осень_2024\DreamCast\Повелитель демонов 2099\[DC] Maou 2099 - 04_Telegram_HEVC.mkv':
  Metadata:
    COMPATIBLE_BRANDS: isomiso2avc1mp41
    MAJOR_BRAND     : isom
    MINOR_VERSION   : 512
    ENCODER         : Lavf61.7.100
  Duration: 00:23:46.60, start: -0.021000, bitrate: 1467 kb/s
  Stream #0:0: Video: hevc (Main 10), yuv420p10le(tv, bt709, progressive), 1920x1080 [SAR 1:1 DAR 16:9], 23.98 fps, 23.98 tbr, 1k tbn (default)
      Metadata:
        HANDLER_NAME    : VideoHandler
        VENDOR_ID       : [0][0][0][0]
        ENCODER         : Lavc61.19.100 libx265
        BPS             : 1270798
        DURATION        : 00:23:46.508708333
        NUMBER_OF_FRAMES: 34202
        NUMBER_OF_BYTES : 226600466
        _STATISTICS_WRITING_APP: mkvpropedit v66.0.0 ('Josie') 64-bit
        _STATISTICS_WRITING_DATE_UTC: 2025-06-02 14:54:19
        _STATISTICS_TAGS: BPS DURATION NUMBER_OF_FRAMES NUMBER_OF_BYTES
  Stream #0:1: Audio: aac (LC), 48000 Hz, stereo, fltp (default)
      Metadata:
        HANDLER_NAME    : SoundHandler
        VENDOR_ID       : [0][0][0][0]
        ENCODER         : Lavc61.19.100 aac
        BPS             : 192833
        DURATION        : 00:23:46.602000000
        NUMBER_OF_FRAMES: 66873
        NUMBER_OF_BYTES : 34386995
        _STATISTICS_WRITING_APP: mkvpropedit v66.0.0 ('Josie') 64-bit
        _STATISTICS_WRITING_DATE_UTC: 2025-06-02 14:54:19
        _STATISTICS_TAGS: BPS DURATION NUMBER_OF_FRAMES NUMBER_OF_BYTES
Input #1, mov,mp4,m4a,3gp,3g2,mj2, from 'G:\Аниме\Онгоинги\!_36_Осень_2024\DreamCast\Повелитель демонов 2099\[DC] Maou 2099 - 04_Telegram.mp4':
  Metadata:
    major_brand     : isom
    minor_version   : 512
    compatible_brands: isomiso2avc1mp41
    encoder         : Lavf61.1.100
  Duration: 00:23:46.57, start: 0.000000, bitrate: 2958 kb/s
  Stream #1:0[0x1](und): Video: h264 (High) (avc1 / 0x31637661), yuv420p(tv, bt709, progressive), 1920x1080 [SAR 1:1 DAR 16:9], 2810 kb/s, 23.98 fps, 23.98 tbr, 24k tbn (default)
      Metadata:
        handler_name    : VideoHandler
        vendor_id       : [0][0][0][0]
        encoder         : Lavc61.3.100 h264_qsv
  Stream #1:1[0x2](und): Audio: aac (HE-AACv2) (mp4a / 0x6134706D), 48000 Hz, stereo, fltp, 144 kb/s (default)
      Metadata:
        handler_name    : SoundHandler
        vendor_id       : [0][0][0][0]
Stream mapping:
  Stream #0:0 (hevc) -> settb:default
  Stream #1:0 (h264) -> settb:default
  psnr:default -> Stream #0:0 (wrapped_avframe)
  Stream #0:1 -> #0:1 (aac (native) -> pcm_s16le (native))
Output #0, null, to 'pipe:':
  Metadata:
    COMPATIBLE_BRANDS: isomiso2avc1mp41
    MAJOR_BRAND     : isom
    MINOR_VERSION   : 512
    encoder         : Lavf61.7.100
  Stream #0:0: Video: wrapped_avframe, yuv420p10le(tv, bt709, progressive), 1920x1080 [SAR 1:1 DAR 16:9], q=2-31, 200 kb/s, 23.98 fps, 23.98 tbn
      Metadata:
        encoder         : Lavc61.19.100 wrapped_avframe
  Stream #0:1: Audio: pcm_s16le, 48000 Hz, stereo, s16, 1536 kb/s (default)
      Metadata:
        HANDLER_NAME    : SoundHandler
        VENDOR_ID       : [0][0][0][0]
        _STATISTICS_TAGS: BPS DURATION NUMBER_OF_FRAMES NUMBER_OF_BYTES
        BPS             : 192833
        DURATION        : 00:23:46.602000000
        NUMBER_OF_FRAMES: 66873
        NUMBER_OF_BYTES : 34386995
        _STATISTICS_WRITING_APP: mkvpropedit v66.0.0 ('Josie') 64-bit
        _STATISTICS_WRITING_DATE_UTC: 2025-06-02 14:54:19
        encoder         : Lavc61.19.100 pcm_s16le
frame=  175 fps=0.0 q=-0.0 size=N/A time=00:00:07.29 bitrate=N/A speed=14.6x    frame=  330 fps=322 q=-0.0 size=N/A time=00:00:13.76 bitrate=N/A speed=13.4x    frame=  459 fps=300 q=-0.0 size=N/A time=00:00:19.14 bitrate=N/A speed=12.5x    frame=  652 fps=317 q=-0.0 size=N/A time=00:00:27.19 bitrate=N/A speed=13.2x    frame=  822 fps=320 q=-0.0 size=N/A time=00:00:34.28 bitrate=N/A speed=13.4x    frame= 1003 fps=325 q=-0.0 size=N/A time=00:00:41.83 bitrate=N/A speed=13.5x    frame= 1194 fps=332 q=-0.0 size=N/A time=00:00:49.79 bitrate=N/A speed=13.8x    frame= 1409 fps=343 q=-0.0 size=N/A time=00:00:58.76 bitrate=N/A speed=14.3x    frame= 1572 fps=339 q=-0.0 size=N/A time=00:01:05.56 bitrate=N/A speed=14.1x    frame= 1757 fps=341 q=-0.0 size=N/A time=00:01:13.28 bitrate=N/A speed=14.2x    frame= 1939 fps=343 q=-0.0 size=N/A time=00:01:20.87 bitrate=N/A speed=14.3x    frame= 2121 fps=343 q=-0.0 size=N/A time=00:01:28.46 bitrate=N/A speed=14.3x    frame= 2274 fps=340 q=-0.0 size=N/A time=00:01:34.84 bitrate=N/A speed=14.2x    frame= 2538 fps=352 q=-0.0 size=N/A time=00:01:45.85 bitrate=N/A speed=14.7x    frame= 2781 fps=360 q=-0.0 size=N/A time=00:01:55.99 bitrate=N/A speed=  15x    frame= 3033 fps=368 q=-0.0 size=N/A time=00:02:06.50 bitrate=N/A speed=15.3x    frame= 3294 fps=376 q=-0.0 size=N/A time=00:02:17.38 bitrate=N/A speed=15.7x    frame= 3563 fps=384 q=-0.0 size=N/A time=00:02:28.60 bitrate=N/A speed=  16x    frame= 3818 fps=390 q=-0.0 size=N/A time=00:02:39.24 bitrate=N/A speed=16.3x    frame= 4090 fps=397 q=-0.0 size=N/A time=00:02:50.58 bitrate=N/A speed=16.5x    frame= 4347 fps=402 q=-0.0 size=N/A time=00:03:01.30 bitrate=N/A speed=16.8x    frame= 4581 fps=404 q=-0.0 size=N/A time=00:03:11.06 bitrate=N/A speed=16.9x    frame= 4787 fps=404 q=-0.0 size=N/A time=00:03:19.65 bitrate=N/A speed=16.8x    frame= 4987 fps=403 q=-0.0 size=N/A time=00:03:27.99 bitrate=N/A speed=16.8x    frame= 5208 fps=404 q=-0.0 size=N/A time=00:03:37.21 bitrate=N/A speed=16.9x    frame= 5483 fps=409 q=-0.0 size=N/A time=00:03:48.68 bitrate=N/A speed=17.1x    frame= 5739 fps=413 q=-0.0 size=N/A time=00:03:59.36 bitrate=N/A speed=17.2x    frame= 5999 fps=416 q=-0.0 size=N/A time=00:04:10.20 bitrate=N/A speed=17.3x    frame= 6224 fps=416 q=-0.0 size=N/A time=00:04:19.59 bitrate=N/A speed=17.4x    frame= 6420 fps=415 q=-0.0 size=N/A time=00:04:27.76 bitrate=N/A speed=17.3x    frame= 6620 fps=414 q=-0.0 size=N/A time=00:04:36.10 bitrate=N/A speed=17.3x    frame= 6824 fps=414 q=-0.0 size=N/A time=00:04:44.61 bitrate=N/A speed=17.3x    frame= 7070 fps=416 q=-0.0 size=N/A time=00:04:54.87 bitrate=N/A speed=17.3x    frame= 7332 fps=418 q=-0.0 size=N/A time=00:05:05.80 bitrate=N/A speed=17.4x    frame= 7539 fps=418 q=-0.0 size=N/A time=00:05:14.43 bitrate=N/A speed=17.4x    frame= 7777 fps=419 q=-0.0 size=N/A time=00:05:24.36 bitrate=N/A speed=17.5x    frame= 7972 fps=418 q=-0.0 size=N/A time=00:05:32.49 bitrate=N/A speed=17.4x    frame= 8174 fps=417 q=-0.0 size=N/A time=00:05:40.92 bitrate=N/A speed=17.4x    frame= 8372 fps=417 q=-0.0 size=N/A time=00:05:49.18 bitrate=N/A speed=17.4x    frame= 8603 fps=417 q=-0.0 size=N/A time=00:05:58.81 bitrate=N/A speed=17.4x    frame= 8842 fps=418 q=-0.0 size=N/A time=00:06:08.78 bitrate=N/A speed=17.5x    frame= 9084 fps=419 q=-0.0 size=N/A time=00:06:18.87 bitrate=N/A speed=17.5x    frame= 9305 fps=420 q=-0.0 size=N/A time=00:06:28.09 bitrate=N/A speed=17.5x    frame= 9509 fps=419 q=-0.0 size=N/A time=00:06:36.60 bitrate=N/A speed=17.5x    frame= 9668 fps=417 q=-0.0 size=N/A time=00:06:43.23 bitrate=N/A speed=17.4x    frame= 9844 fps=415 q=-0.0 size=N/A time=00:06:50.57 bitrate=N/A speed=17.3x    frame=10061 fps=415 q=-0.0 size=N/A time=00:06:59.62 bitrate=N/A speed=17.3x    frame=10295 fps=416 q=-0.0 size=N/A time=00:07:09.38 bitrate=N/A speed=17.3x    frame=10557 fps=418 q=-0.0 size=N/A time=00:07:20.31 bitrate=N/A speed=17.4x    frame=10797 fps=419 q=-0.0 size=N/A time=00:07:30.32 bitrate=N/A speed=17.5x    frame=11040 fps=420 q=-0.0 size=N/A time=00:07:40.46 bitrate=N/A speed=17.5x    frame=11283 fps=421 q=-0.0 size=N/A time=00:07:50.59 bitrate=N/A speed=17.6x    frame=11525 fps=422 q=-0.0 size=N/A time=00:08:00.68 bitrate=N/A speed=17.6x    frame=11734 fps=421 q=-0.0 size=N/A time=00:08:09.40 bitrate=N/A speed=17.6x    frame=11944 fps=421 q=-0.0 size=N/A time=00:08:18.16 bitrate=N/A speed=17.6x    frame=12148 fps=420 q=-0.0 size=N/A time=00:08:26.67 bitrate=N/A speed=17.5x    frame=12323 fps=419 q=-0.0 size=N/A time=00:08:33.97 bitrate=N/A speed=17.5x    frame=12526 fps=419 q=-0.0 size=N/A time=00:08:42.43 bitrate=N/A speed=17.5x    frame=12767 fps=419 q=-0.0 size=N/A time=00:08:52.49 bitrate=N/A speed=17.5x    frame=13010 fps=420 q=-0.0 size=N/A time=00:09:02.62 bitrate=N/A speed=17.5x    frame=13291 fps=422 q=-0.0 size=N/A time=00:09:14.34 bitrate=N/A speed=17.6x    frame=13549 fps=423 q=-0.0 size=N/A time=00:09:25.10 bitrate=N/A speed=17.7x    frame=13815 fps=425 q=-0.0 size=N/A time=00:09:36.20 bitrate=N/A speed=17.7x    frame=14089 fps=427 q=-0.0 size=N/A time=00:09:47.62 bitrate=N/A speed=17.8x    frame=14356 fps=428 q=-0.0 size=N/A time=00:09:58.76 bitrate=N/A speed=17.9x    frame=14634 fps=430 q=-0.0 size=N/A time=00:10:10.35 bitrate=N/A speed=17.9x    frame=14904 fps=431 q=-0.0 size=N/A time=00:10:21.62 bitrate=N/A speed=  18x    frame=15164 fps=432 q=-0.0 size=N/A time=00:10:32.46 bitrate=N/A speed=  18x    frame=15434 fps=433 q=-0.0 size=N/A time=00:10:43.72 bitrate=N/A speed=18.1x    frame=15673 fps=434 q=-0.0 size=N/A time=00:10:53.69 bitrate=N/A speed=18.1x    frame=15943 fps=435 q=-0.0 size=N/A time=00:11:04.95 bitrate=N/A speed=18.1x    frame=16211 fps=436 q=-0.0 size=N/A time=00:11:16.13 bitrate=N/A speed=18.2x    frame=16484 fps=437 q=-0.0 size=N/A time=00:11:27.52 bitrate=N/A speed=18.2x    frame=16772 fps=439 q=-0.0 size=N/A time=00:11:39.53 bitrate=N/A speed=18.3x    frame=17038 fps=440 q=-0.0 size=N/A time=00:11:50.62 bitrate=N/A speed=18.3x    frame=17287 fps=440 q=-0.0 size=N/A time=00:12:01.01 bitrate=N/A speed=18.4x    frame=17549 fps=441 q=-0.0 size=N/A time=00:12:11.93 bitrate=N/A speed=18.4x    frame=17831 fps=443 q=-0.0 size=N/A time=00:12:23.70 bitrate=N/A speed=18.5x    frame=18104 fps=444 q=-0.0 size=N/A time=00:12:35.08 bitrate=N/A speed=18.5x    frame=18390 fps=445 q=-0.0 size=N/A time=00:12:47.01 bitrate=N/A speed=18.6x    frame=18668 fps=446 q=-0.0 size=N/A time=00:12:58.61 bitrate=N/A speed=18.6x    frame=18956 fps=448 q=-0.0 size=N/A time=00:13:10.62 bitrate=N/A speed=18.7x    frame=19229 fps=449 q=-0.0 size=N/A time=00:13:22.00 bitrate=N/A speed=18.7x    frame=19502 fps=450 q=-0.0 size=N/A time=00:13:33.39 bitrate=N/A speed=18.8x    frame=19774 fps=451 q=-0.0 size=N/A time=00:13:44.74 bitrate=N/A speed=18.8x    frame=20052 fps=452 q=-0.0 size=N/A time=00:13:56.33 bitrate=N/A speed=18.8x    frame=20324 fps=453 q=-0.0 size=N/A time=00:14:07.68 bitrate=N/A speed=18.9x    frame=20613 fps=454 q=-0.0 size=N/A time=00:14:19.73 bitrate=N/A speed=18.9x    frame=20861 fps=454 q=-0.0 size=N/A time=00:14:30.07 bitrate=N/A speed=18.9x    frame=21156 fps=455 q=-0.0 size=N/A time=00:14:42.38 bitrate=N/A speed=  19x    frame=21433 fps=456 q=-0.0 size=N/A time=00:14:53.93 bitrate=N/A speed=  19x    frame=21725 fps=457 q=-0.0 size=N/A time=00:15:06.11 bitrate=N/A speed=19.1x    frame=22006 fps=458 q=-0.0 size=N/A time=00:15:17.83 bitrate=N/A speed=19.1x    frame=22284 fps=459 q=-0.0 size=N/A time=00:15:29.42 bitrate=N/A speed=19.2x    frame=22572 fps=460 q=-0.0 size=N/A time=00:15:41.44 bitrate=N/A speed=19.2x    frame=22844 fps=461 q=-0.0 size=N/A time=00:15:52.78 bitrate=N/A speed=19.2x    frame=23105 fps=461 q=-0.0 size=N/A time=00:16:03.67 bitrate=N/A speed=19.2x    frame=23373 fps=462 q=-0.0 size=N/A time=00:16:14.84 bitrate=N/A speed=19.3x    frame=23645 fps=463 q=-0.0 size=N/A time=00:16:26.19 bitrate=N/A speed=19.3x    frame=23927 fps=463 q=-0.0 size=N/A time=00:16:37.95 bitrate=N/A speed=19.3x    frame=24139 fps=463 q=-0.0 size=N/A time=00:16:46.79 bitrate=N/A speed=19.3x    frame=24424 fps=464 q=-0.0 size=N/A time=00:16:58.68 bitrate=N/A speed=19.4x    frame=24704 fps=465 q=-0.0 size=N/A time=00:17:10.36 bitrate=N/A speed=19.4x    frame=24987 fps=465 q=-0.0 size=N/A time=00:17:22.16 bitrate=N/A speed=19.4x    frame=25252 fps=466 q=-0.0 size=N/A time=00:17:33.21 bitrate=N/A speed=19.4x    frame=25522 fps=466 q=-0.0 size=N/A time=00:17:44.48 bitrate=N/A speed=19.5x    frame=25799 fps=467 q=-0.0 size=N/A time=00:17:56.03 bitrate=N/A speed=19.5x    frame=26074 fps=468 q=-0.0 size=N/A time=00:18:07.50 bitrate=N/A speed=19.5x    frame=26347 fps=468 q=-0.0 size=N/A time=00:18:18.88 bitrate=N/A speed=19.5x    frame=26583 fps=468 q=-0.0 size=N/A time=00:18:28.73 bitrate=N/A speed=19.5x    frame=26864 fps=469 q=-0.0 size=N/A time=00:18:40.45 bitrate=N/A speed=19.6x    frame=27145 fps=470 q=-0.0 size=N/A time=00:18:52.17 bitrate=N/A speed=19.6x    frame=27430 fps=470 q=-0.0 size=N/A time=00:19:04.05 bitrate=N/A speed=19.6x    frame=27701 fps=471 q=-0.0 size=N/A time=00:19:15.36 bitrate=N/A speed=19.6x    frame=27971 fps=471 q=-0.0 size=N/A time=00:19:26.62 bitrate=N/A speed=19.7x    frame=28199 fps=471 q=-0.0 size=N/A time=00:19:36.13 bitrate=N/A speed=19.6x    frame=28474 fps=472 q=-0.0 size=N/A time=00:19:47.60 bitrate=N/A speed=19.7x    frame=28746 fps=472 q=-0.0 size=N/A time=00:19:58.94 bitrate=N/A speed=19.7x    frame=29031 fps=473 q=-0.0 size=N/A time=00:20:10.83 bitrate=N/A speed=19.7x    frame=29305 fps=473 q=-0.0 size=N/A time=00:20:22.26 bitrate=N/A speed=19.7x    frame=29583 fps=474 q=-0.0 size=N/A time=00:20:33.85 bitrate=N/A speed=19.8x    frame=29870 fps=474 q=-0.0 size=N/A time=00:20:45.82 bitrate=N/A speed=19.8x    frame=30132 fps=475 q=-0.0 size=N/A time=00:20:56.75 bitrate=N/A speed=19.8x    frame=30403 fps=475 q=-0.0 size=N/A time=00:21:08.05 bitrate=N/A speed=19.8x    frame=30682 fps=476 q=-0.0 size=N/A time=00:21:19.69 bitrate=N/A speed=19.8x    frame=30970 fps=476 q=-0.0 size=N/A time=00:21:31.70 bitrate=N/A speed=19.9x    frame=31257 fps=477 q=-0.0 size=N/A time=00:21:43.67 bitrate=N/A speed=19.9x    frame=31531 fps=477 q=-0.0 size=N/A time=00:21:55.10 bitrate=N/A speed=19.9x    frame=31805 fps=478 q=-0.0 size=N/A time=00:22:06.53 bitrate=N/A speed=19.9x    frame=32058 fps=478 q=-0.0 size=N/A time=00:22:17.08 bitrate=N/A speed=19.9x    frame=32325 fps=478 q=-0.0 size=N/A time=00:22:28.22 bitrate=N/A speed=19.9x    frame=32548 fps=478 q=-0.0 size=N/A time=00:22:37.52 bitrate=N/A speed=19.9x    frame=32743 fps=477 q=-0.0 size=N/A time=00:22:45.65 bitrate=N/A speed=19.9x    frame=32929 fps=476 q=-0.0 size=N/A time=00:22:53.41 bitrate=N/A speed=19.9x    frame=33104 fps=475 q=-0.0 size=N/A time=00:23:00.71 bitrate=N/A speed=19.8x    frame=33225 fps=473 q=-0.0 size=N/A time=00:23:05.75 bitrate=N/A speed=19.7x    frame=33323 fps=471 q=-0.0 size=N/A time=00:23:09.84 bitrate=N/A speed=19.7x    frame=33425 fps=469 q=-0.0 size=N/A time=00:23:14.10 bitrate=N/A speed=19.6x    frame=33529 fps=467 q=-0.0 size=N/A time=00:23:18.43 bitrate=N/A speed=19.5x    frame=33627 fps=465 q=-0.0 size=N/A time=00:23:22.52 bitrate=N/A speed=19.4x    frame=33729 fps=464 q=-0.0 size=N/A time=00:23:26.78 bitrate=N/A speed=19.3x    frame=33993 fps=464 q=-0.0 size=N/A time=00:23:37.79 bitrate=N/A speed=19.4x    [Parsed_psnr_10 @ 000001214bf4c500] PSNR y:48.257686 u:50.362904 v:50.152540 average:48.827464 min:29.239253 max:inf
[out#0/null @ 000001213ee64500] video:14696KiB audio:267492KiB subtitle:0KiB other streams:0KiB global headers:0KiB muxing overhead: unknown
frame=34202 fps=464 q=-0.0 Lsize=N/A time=00:23:46.50 bitrate=N/A speed=19.4x    
